<svg xmlns="http://www.w3.org/2000/svg" width="40" height="40" viewBox="0 0 512 512"><path fill="#59CAFC" d="M500.951 489.617c0 6.6-5.4 12-12 12H21.716c-6.6 0-12-5.4-12-12V22.383c0-6.6 5.4-12 12-12H488.95c6.6 0 12 5.4 12 12"/><path fill="#597B91" d="M403.271 365.73s0 12.843-8.219 12.843s-64.726 15.925-78.083 15.925c-13.356 0-11.301 8.733-17.98 8.733c-.895 0-10.228 7.805-13.356 10.387s-19.82 4.075-24.658-.009c-3.727-3.146 8.434-6.704 6.314-12.487c-1.239-3.381-.47-2.208 1.905-4.055c13.738-10.682 23.63-14.897 41.096-14.202c17.466.695 51.884-10.455 64.213-17.133h28.768zm-228.083-46.233s-80.651-14.384-100.172-11.301c-19.521 3.082-9.76 21.062-9.76 28.767c0 7.706-6.678 15.411-6.678 37.773c0 22.362 3.596 14.624 8.219 23.871c4.623 9.247 16.438 15.001 16.438 15.001s15.945 12.896 16.438 7.479c.272-2.986-2.055-23.05-2.645-26.59c-.554-3.321-13.922-6.871-15.848-10.017c-7.706-12.586-8.219-41.867 0-48.849c8.219-6.982 20.034 3.386 39.041 3.386s17.98-2.055 36.71-3.386l18.257-16.134z"/><path fill="#C18306" d="M260.261 46.39c0-10.637-8.623-19.261-19.261-19.261s-19.261 8.623-19.261 19.261c0 7.385 4.16 13.791 10.261 17.023v419.911h18V63.413c6.1-3.232 10.261-9.638 10.261-17.023z"/><path fill="#D17BFF" d="M397.666 215.457c20.909-16.333 45.803-33.109 65.666-11.101c12.684 14.054 13.994 36.004 9.66 53.823c-5.211 21.422-25.952 39.265-25.081 61.958c.622 16.205 11.012 21.959 22.963 30.878c6.012 4.487 7.921 13.082 8.527 18.086c.146 1.206-1.34 1.874-2.163.98c-4.197-4.552-13.941-13.533-30.338-20.086c-11.505-4.598-14.951-17.492-16.306-29.566c-3.043-27.116 17.547-47.605 18.116-73.677c.558-14.173-5.41-27.964-22.692-23.908c-6.52 1.53-17.492 11.675-21.43 6.867c-6.418-7.833-.506-6.42-6.922-14.254z"/><path fill="#F9F9F7" d="M435.995 365.089c-.066-.219-.152-.434-.232-.65a14.493 14.493 0 0 1-.129-1.792c0-6.164-21.575-19.007-21.575-38.528c0-19.521 16.952-26.199 16.952-59.589c0-33.391-11.301-60.617-47.774-60.617s-45.206 21.575-103.254 21.575s-78.136-50.694-87.329-66.781c-10.025-17.543-32.955-53.085-60.507-65.758v-.001c1.138-23.636-13.466-39.036-12.953-30.303c.445 7.568-6.436 15.138-8.281 25.744c-12.042.794-21 10.215-21 10.215c-9.247 10.274-12.329 27.74-11.815 41.096s-9.717 20.282-14.384 38.014c-5.137 19.521 10.274 26.199 13.099 27.226c2.825 1.027 5.14.107 10.531-19.521c1.424-5.184 9.754-1.019 8.917 4.554c-1.441 9.585-5.031 20.406 3.926 17.536c8.957-2.871 10.788-9.247 11.301-22.089c.514-12.843 19.521-24.658 23.117-25.171c3.596-.514 0 31.336 0 31.336s-7.706 34.026-7.706 49.119c0 6.996.777 21.746 3.399 37.539c1.309 7.882-4.769 15.026-12.758 14.981c-8.325-.046-15.978-.4-20.949-1.981C85.29 287.647 73.988 279.1 67.31 279.1c-6.678 0-20.034 4.438-21.062 20.876c-1.027 16.438-19.521 33.904-20.548 42.123c-1.027 8.219 9.857 41.949 22.089 47.622c5.101 2.366 6.105-15.04 6.252-25.573c.059-4.237-2.897-7.895-7.042-8.778c-4.485-.956-8.713-2.501-4.348-4.538c7.706-3.596 6.164 1.217 8.219-19.426c2.055-20.643 6.678-26.837 19.521-26.565c12.842.272 22.089 26.565 73.973 26.565h.09c5.033-.004 9.888 1.853 13.587 5.267c12.432 11.475 22.204 14.159 43.344 14.159c69.564 0 94.007-31.336 112.5-31.336s1.541 5.651 19.521 23.63c17.979 17.98 41.096 33.904 74.487 31.336l.033-.003a2.838 2.838 0 0 1 3.047 3.049c-2.163 27.408-43.427 48.394-57.019 62.194c-6.323 6.42-10.048 27.74-10.048 27.74s-2.281 11.815.923 14.897c3.204 3.082 14.512-1.272 22.481-10.274c2.858-3.229-1.076-10.688 1.027-15.411c1.849-4.151 9.891-5.782 10.274-6.164c3.596-3.596-9.247-6.678 11.815-21.268c21.064-14.588 49.061-52.626 45.569-64.133z"/><path fill="#FFD469" d="M232.238 201.785a4.624 4.624 0 0 0-4.624 4.624c0 12.499-6.262 23.585-16.343 28.934c-12.412 6.584-28.61 3.872-45.606-7.636c-18.959-12.838-21.645-56.002-23.421-84.564c-.534-8.579-.995-15.988-1.797-21.403c-.075-.503-.16-1.076-.264-1.692a9.901 9.901 0 0 0 1.989-5.955c0-5.502-4.46-9.963-9.962-9.963c-.907 0-1.782.132-2.618.359c-6.29-4.599-17.991-9.608-39.487-10.502a4.616 4.616 0 0 0-4.812 4.427a4.624 4.624 0 0 0 4.427 4.812c18.129.754 27.899 4.557 33.013 7.801a9.903 9.903 0 0 0 .92 8.151L94.515 166.53c-.09.009-.176.029-.265.04c-5.146-3.941-13.987-9.598-22.701-9.92a4.616 4.616 0 0 0-4.791 4.45a4.625 4.625 0 0 0 4.45 4.791c5.039.186 10.857 3.363 15.269 6.439a9.914 9.914 0 0 0-.894 4.109c0 5.502 4.46 9.963 9.963 9.963s9.962-4.46 9.962-9.963a9.921 9.921 0 0 0-2.31-6.376l28.25-45.909c.682 5.345 1.157 12.956 1.568 19.563c2.002 32.184 4.744 76.261 27.465 91.646c14.331 9.704 26.458 12.744 36.031 12.744c8.424 0 14.87-2.355 19.093-4.596c13.111-6.956 21.256-21.173 21.256-37.102a4.622 4.622 0 0 0-4.623-4.624z"/><path fill="#D17BFF" d="M69.365 120.694c-17.166 0-23.857-13.335-18.559-23.898c.466-.93 1.847-.743 2.087.269c.691 2.905 3.527 6.537 13.389 6.537c16.438 0 1.077-30.168 25.685-30.168s33.904 14.897 52.397 14.897s24.658 14.384 30.822 22.603s19.521-1.541 27.74 12.329c8.219 13.87 5.137 21.575 11.301 28.767s21.79 23.4 17.167 39.633s-23.63 11.815-12.329 36.473c7.169 15.642-5.594 25.464-15.885 30.556c-1.243.615-2.435-.978-1.477-1.981c6.462-6.766 9.968-19.42-14.189-39.955c-36.772-31.257 3.475-30.362 2.141-50.625c-1.397-21.217-45.347-71.209-65.988-76.315a54.061 54.061 0 0 0-2.334-.523c-25.258-5.073-39.672 16.675-41.456 30.704l-10.512.697z"/><path fill="#FFD469" d="M252.37 218.472c12.629 2.285 36.709 4.296 62.339-.209c25.63-4.505 49.655-14.284 49.655-14.284s29.287 94.387-60.456 94.387c-71.199 0-51.538-79.894-51.538-79.894z"/></svg>